<?xml version="1.0" standalone="no"?>
<!DOCTYPE svg PUBLIC "-//W3C//DTD SVG 20010904//EN"
 "http://www.w3.org/TR/2001/REC-SVG-20010904/DTD/svg10.dtd">
<svg version="1.0" xmlns="http://www.w3.org/2000/svg"
 width="13333.000000pt" height="1917.000000pt" viewBox="0 0 13333.000000 1917.000000"
 preserveAspectRatio="xMidYMid meet">

<g transform="translate(0.000000,1917.000000) scale(0.100000,-0.100000)"
fill="#000000" stroke="none">
<path d="M0 7501 l0 -7501 33318 1 c32158 1 33314 2 33242 19 -41 10 -15026
3383 -33300 7495 -18274 4112 -33233 7479 -33242 7481 -17 5 -18 -357 -18
-7495z"/>
<path d="M100020 7505 c-18312 -4122 -33302 -7496 -33310 -7498 -8 -3 14978
-5 33303 -6 l33317 -1 0 7500 c0 4125 -3 7500 -7 7499 -5 0 -14991 -3373
-33303 -7494z"/>
</g>
</svg>
